<svg width="24" height="24" viewBox="0 0 24 24" fill="none" xmlns="http://www.w3.org/2000/svg">
<path d="M11.999 7.37701C10.7726 7.37701 9.59651 7.86418 8.72934 8.73135C7.86217 9.59852 7.375 10.7747 7.375 12.001C7.375 13.2274 7.86217 14.4035 8.72934 15.2707C9.59651 16.1378 10.7726 16.625 11.999 16.625C13.2254 16.625 14.4015 16.1378 15.2687 15.2707C16.1358 14.4035 16.623 13.2274 16.623 12.001C16.623 10.7747 16.1358 9.59852 15.2687 8.73135C14.4015 7.86418 13.2254 7.37701 11.999 7.37701ZM11.999 15.004C11.2023 15.004 10.4382 14.6875 9.87485 14.1242C9.31149 13.5608 8.995 12.7967 8.995 12C8.995 11.2033 9.31149 10.4392 9.87485 9.87587C10.4382 9.31251 11.2023 8.99601 11.999 8.99601C12.7957 8.99601 13.5598 9.31251 14.1231 9.87587C14.6865 10.4392 15.003 11.2033 15.003 12C15.003 12.7967 14.6865 13.5608 14.1231 14.1242C13.5598 14.6875 12.7957 15.004 11.999 15.004Z" fill="white"/>
<path d="M16.806 8.285C17.4014 8.285 17.884 7.80236 17.884 7.207C17.884 6.61163 17.4014 6.129 16.806 6.129C16.2106 6.129 15.728 6.61163 15.728 7.207C15.728 7.80236 16.2106 8.285 16.806 8.285Z" fill="white"/>
<path d="M20.533 6.111C20.3015 5.51319 19.9477 4.97029 19.4943 4.51706C19.0409 4.06384 18.4979 3.71028 17.9 3.479C17.2003 3.21636 16.4612 3.07435 15.714 3.059C14.751 3.017 14.446 3.005 12.004 3.005C9.562 3.005 9.249 3.005 8.294 3.059C7.54739 3.07356 6.80876 3.21561 6.11 3.479C5.51194 3.71001 4.96876 4.06348 4.51533 4.51673C4.0619 4.96999 3.70823 5.51303 3.477 6.111C3.2143 6.81062 3.07261 7.54984 3.058 8.297C3.015 9.259 3.002 9.564 3.002 12.007C3.002 14.449 3.002 14.76 3.058 15.717C3.073 16.465 3.214 17.203 3.477 17.904C3.70888 18.5018 4.0629 19.0446 4.51644 19.4978C4.96998 19.951 5.51306 20.3046 6.111 20.536C6.80843 20.8092 7.54737 20.9614 8.296 20.986C9.259 21.028 9.564 21.041 12.006 21.041C14.448 21.041 14.761 21.041 15.716 20.986C16.4631 20.9708 17.2022 20.8291 17.902 20.567C18.4998 20.3352 19.0426 19.9813 19.496 19.528C19.9493 19.0746 20.3032 18.5318 20.535 17.934C20.798 17.234 20.939 16.496 20.954 15.748C20.997 14.786 21.01 14.481 21.01 12.038C21.01 9.595 21.01 9.285 20.954 8.328C20.9424 7.57028 20.7999 6.82025 20.533 6.111ZM19.315 15.643C19.3086 16.2193 19.2034 16.7902 19.004 17.331C18.8538 17.7199 18.6239 18.073 18.3291 18.3677C18.0342 18.6624 17.681 18.8921 17.292 19.042C16.7572 19.2405 16.1924 19.3456 15.622 19.353C14.672 19.397 14.404 19.408 11.968 19.408C9.53 19.408 9.281 19.408 8.313 19.353C7.74293 19.346 7.17833 19.2408 6.644 19.042C6.25369 18.893 5.899 18.6637 5.60289 18.369C5.30678 18.0742 5.07584 17.7206 4.925 17.331C4.72845 16.7961 4.62331 16.2318 4.614 15.662C4.571 14.712 4.561 14.444 4.561 12.008C4.561 9.57101 4.561 9.322 4.614 8.353C4.62046 7.77703 4.72566 7.20642 4.925 6.666C5.23 5.877 5.855 5.256 6.644 4.954C7.17859 4.75614 7.74303 4.65097 8.313 4.643C9.264 4.6 9.531 4.588 11.968 4.588C14.405 4.588 14.655 4.588 15.622 4.643C16.1924 4.64987 16.7574 4.75508 17.292 4.954C17.6809 5.10428 18.0341 5.33421 18.329 5.62903C18.6238 5.92386 18.8537 6.27708 19.004 6.666C19.2006 7.20095 19.3057 7.76516 19.315 8.335C19.358 9.286 19.369 9.553 19.369 11.99C19.369 14.426 19.369 14.688 19.326 15.644H19.315V15.643Z" fill="white"/>
</svg>
